<?xml version="1.0" encoding="UTF-8" standalone="no"?>
<svg
   viewBox="329.3 -16.7 99.999999 80"
   version="1.1"
   id="svg2"
   width="100"
   height="80"
   xmlns="http://www.w3.org/2000/svg"
   xmlns:svg="http://www.w3.org/2000/svg">
  <defs
     id="defs2" />
  <path
     d="m 333.25,-15.690415 h 25.1 l -25.1,26.1 z"
     fill="#e10026"
     id="path1" />
  <path
     d="m 403.55,-15.690415 -10.2,31.7 c -2,-3.2 -4.6,-5.7 -7.8,-7.2999997 -3.2,-1.6 -7.2,-2.4 -11.5,-2.4 -1.9,0 -3,0.1 -4.6,0.3 -1.6,0.2 -4,0.8 -6,1.6 -6.3,2.5999997 -12.2,7.6999997 -16.1,14.6999997 -3.9,7.1 -5.2,14.8 -4,21.5 1.2,6.7 4.8,12.5 10.5,15.6 5.7,3.2 12.5,3.2 18.8,0.6 3.4,-1.4 6.7,-3.5 9.7,-6.3 v 0.1 l -2.3,6.8 h 20.9 c 0.8,-3.4 1.9,-7.3 3.2,-11.7 0.1,-0.4 0.2,-0.8 0.3,-1 l 20.9,-64.4 h -21.8 z m -17.2,54.1 c -3.3,8.6 -10.8,13.7 -16.6,11.5 -5.8,-2.3 -7.8,-11 -4.5,-19.6 3.3,-8.6 10.8,-13.7 16.6,-11.5 5.9,2.3 7.9,11.1 4.5,19.6 z"
     fill="#005696"
     id="path2" />
</svg>
