<?xml version="1.0" encoding="UTF-8" standalone="no"?>
<svg
   version="1.1"
   viewBox="-10 0 1040400 1000000"
   id="svg1"
   width="1040400"
   height="1000000"
   xmlns="http://www.w3.org/2000/svg"
   xmlns:svg="http://www.w3.org/2000/svg">
  <defs
     id="defs1" />
  <path
     fill="#00538e"
     d="m 140,765 h 632 q 31,0 54,-21 23,-21 26,-52 H 60 q 3,31 26,52 23,21 54,21 z M 853,493 q 0,-13 8.5,-21.5 8.5,-8.5 20.5,-8.5 12,0 21,8.5 9,8.5 9,21.5 v 191 q 0,38 -19,70 -19,32 -51,51 -32,19 -70,19 H 140 Q 102,824 70,805 38,786 19,754 0,722 0,684 V 376 q 0,-38 19,-70 19,-32 51,-51 32,-19 70,-19 h 416 q 12,0 20.5,8.5 8.5,8.5 8.5,21 0,12.5 -8.5,21 Q 568,295 556,295 H 140 Q 106,295 82.5,318.5 59,342 59,376 v 199 h 794 z m 71,-186 q 17,-29 17,-63 0,-34 -17,-63 -17,-29 -46,-46 -29,-17 -63,-17 -34,0 -63.5,17 -29.5,17 -46.5,46 -17,29 -17,63.5 0,34.5 19,64.5 16,-14 45.5,-22.5 29.5,-8.5 63.5,-8.5 34,0 62.5,8 28.5,8 45.5,21 z M 815,59 q 50,0 92.5,25 42.5,25 67.5,67.5 25,42.5 25,92.5 0,50 -25,92.5 Q 950,379 907.5,404 865,429 815,429 765,429 722,404 679,379 654,336.5 629,294 629,244 629,194 654,151.5 679,109 722,84 765,59 815,59 Z m -56,143 q 0,-24 17,-40.5 17,-16.5 40.5,-16.5 23.5,0 40.5,16.5 17,16.5 17,40.5 0,24 -17,41 -17,17 -40.5,17 -23.5,0 -40.5,-17 -17,-17 -17,-41 z"
     id="path1"/>
</svg>
