<?xml version="1.0" encoding="UTF-8" standalone="no"?>
<svg
   version="1.1"
   viewBox="-10 0 20 20"
   id="svg1"
   width="20"
   height="20"
   sodipodi:docname="supercard.svg"
   inkscape:version="1.4 (86a8ad7, 2024-10-11)"
   xmlns:inkscape="http://www.inkscape.org/namespaces/inkscape"
   xmlns:sodipodi="http://sodipodi.sourceforge.net/DTD/sodipodi-0.dtd"
   xmlns="http://www.w3.org/2000/svg"
   xmlns:svg="http://www.w3.org/2000/svg">
  <sodipodi:namedview
     id="namedview1"
     pagecolor="#505050"
     bordercolor="#eeeeee"
     borderopacity="1"
     inkscape:showpageshadow="0"
     inkscape:pageopacity="0"
     inkscape:pagecheckerboard="0"
     inkscape:deskcolor="#505050"
     inkscape:zoom="18.513072"
     inkscape:cx="-6.4008826"
     inkscape:cy="19.31068"
     inkscape:window-width="2560"
     inkscape:window-height="1351"
     inkscape:window-x="2551"
     inkscape:window-y="-9"
     inkscape:window-maximized="1"
     inkscape:current-layer="svg1" />
  <defs
     id="defs1" />
  <path
     fill="currentColor"
     d="M -7.0588235,16.343137 H 5.3333334 q 0.6078431,0 1.0588235,-0.411764 0.4509804,-0.411765 0.509804,-1.019608 H -8.6274509 q 0.058824,0.607843 0.5098039,1.019608 0.4509804,0.411764 1.0588235,0.411764 z M 6.9215687,11.009804 q 0,-0.254902 0.1666667,-0.421569 0.1666666,-0.166666 0.4019607,-0.166666 0.2352942,0 0.4117648,0.166666 0.1764705,0.166667 0.1764705,0.421569 v 3.745098 q 0,0.745098 -0.372549,1.372549 -0.372549,0.627451 -1,1 Q 6.0784314,17.5 5.3333334,17.5 H -7.0588235 q -0.745098,0 -1.372549,-0.372549 -0.6274511,-0.372549 -1,-1 Q -9.8039215,15.5 -9.8039215,14.754902 V 8.7156863 q 0,-0.7450981 0.372549,-1.372549 0.3725489,-0.627451 1,-1 0.627451,-0.3725491 1.372549,-0.3725491 h 8.1568627 q 0.2352942,0 0.4019609,0.1666667 0.1666666,0.1666667 0.1666666,0.4117647 0,0.245098 -0.1666666,0.4117647 Q 1.3333334,7.127451 1.0980392,7.127451 h -8.1568627 q -0.6666666,0 -1.1274509,0.4607843 -0.4607844,0.4607843 -0.4607844,1.127451 V 12.617647 H 6.9215687 Z M 8.3137256,7.3627451 Q 8.6470589,6.7941176 8.6470589,6.127451 q 0,-0.6666667 -0.3333333,-1.2352941 Q 7.9803922,4.3235294 7.4117648,3.9901961 6.8431373,3.6568627 6.1764707,3.6568627 q -0.6666667,0 -1.2450981,0.3333334 -0.5784314,0.3333333 -0.9117647,0.9019608 -0.3333333,0.5686274 -0.3333333,1.245098 0,0.6764706 0.372549,1.2647059 0.3137255,-0.2745098 0.8921569,-0.4411765 0.5784313,-0.1666667 1.245098,-0.1666667 0.6666667,0 1.2254902,0.1568628 0.5588235,0.1568627 0.8921569,0.4117647 z M 6.1764707,2.5 q 0.9803921,0 1.8137254,0.4901961 0.8333334,0.4901961 1.3235295,1.3235294 0.490196,0.8333333 0.490196,1.8137255 0,0.9803921 -0.490196,1.8137255 Q 8.8235295,8.7745098 7.9901961,9.2647059 7.1568628,9.754902 6.1764707,9.754902 5.1960785,9.754902 4.3529412,9.2647059 3.509804,8.7745098 3.0196079,7.9411765 2.5294118,7.1078431 2.5294118,6.127451 q 0,-0.9803922 0.4901961,-1.8137255 Q 3.509804,3.4803922 4.3529412,2.9901961 5.1960785,2.5 6.1764707,2.5 Z M 5.0784314,5.3039216 q 0,-0.4705883 0.3333334,-0.7941177 0.3333333,-0.3235294 0.7941176,-0.3235294 0.4607843,0 0.7941177,0.3235294 0.3333333,0.3235294 0.3333333,0.7941177 0,0.4705882 -0.3333333,0.8039215 -0.3333334,0.3333334 -0.7941177,0.3333334 -0.4607843,0 -0.7941176,-0.3333334 Q 5.0784314,5.7745098 5.0784314,5.3039216 Z"
     id="path1"
     style="fill:#00538e;fill-opacity:1;stroke:none;stroke-width:0.0196078" />
</svg>
