<?xml version="1.0" encoding="UTF-8" standalone="no"?>
<svg
   xmlns:dc="http://purl.org/dc/elements/1.1/"
   xmlns:cc="http://creativecommons.org/ns#"
   xmlns:rdf="http://www.w3.org/1999/02/22-rdf-syntax-ns#"
   xmlns:svg="http://www.w3.org/2000/svg"
   xmlns="http://www.w3.org/2000/svg"
   xmlns:sodipodi="http://sodipodi.sourceforge.net/DTD/sodipodi-0.dtd"
   xmlns:inkscape="http://www.inkscape.org/namespaces/inkscape"
   width="54"
   height="68"
   viewBox="0 0 54 68"
   fill="none"
   version="1.1"
   id="svg18"
   sodipodi:docname="deepl.svg"
   inkscape:version="1.0.1 (3bc2e813f5, 2020-09-07)">
  <metadata
     id="metadata24">
    <rdf:RDF>
      <cc:Work
         rdf:about="">
        <dc:format>image/svg+xml</dc:format>
        <dc:type
           rdf:resource="http://purl.org/dc/dcmitype/StillImage" />
        <dc:title></dc:title>
      </cc:Work>
    </rdf:RDF>
  </metadata>
  <defs
     id="defs22" />
  <sodipodi:namedview
     pagecolor="#ffffff"
     bordercolor="#666666"
     borderopacity="1"
     objecttolerance="10"
     gridtolerance="10"
     guidetolerance="10"
     inkscape:pageopacity="0"
     inkscape:pageshadow="2"
     inkscape:window-width="1920"
     inkscape:window-height="1017"
     id="namedview20"
     showgrid="false"
     inkscape:zoom="8.8388348"
     inkscape:cx="24.833492"
     inkscape:cy="34.070817"
     inkscape:window-x="-8"
     inkscape:window-y="-8"
     inkscape:window-maximized="1"
     inkscape:current-layer="svg18"
     inkscape:document-rotation="0" />
  <path
     d="m 0.1875,17.2741 v 26.8107 c 0,1.3927 0.730313,2.6694 1.92188,3.3658 l 23.06252,13.386 c 1.1915,0.6964 2.6522,0.6964 3.8437,0 L 52.0781,47.4506 C 53.2697,46.7542 54,45.4775 54,44.0848 V 17.2741 c 0,-1.3928 -0.7303,-2.6695 -1.9219,-3.3658 L 29.0156,0.522285 c -1.1915,-0.69638 -2.6522,-0.69638 -3.8437,0 L 2.10938,13.947 C 0.917813,14.6433 0.1875,15.92 0.1875,17.2741 Z"
     fill="#0f2b46"
     id="path2" />
  <path
     d="M 36.7031,67.5303 36.6647,61.7271 36.7031,56.3882 23.25,59.7153"
     fill="#0f2b46"
     id="path4" />
  <path
     d="m 36.0879,55.9238 2.5369,-0.6577 -0.961,0.5416 c -0.5765,0.3482 -0.9609,0.9672 -0.9609,1.6636 v 1.0833 z"
     fill="#142c46"
     id="path6" />
  <path
     d="m 17.7904,18.4744 c 1.5375,-1.5088 3.9975,-1.5088 5.535,0 1.6528,1.5862 1.6528,4.217 0,5.8032 -1.5375,1.5088 -3.9975,1.5088 -5.535,0 -1.6528,-1.5862 -1.6528,-4.217 0,-5.8032 z"
     fill="#ffffff"
     id="path8" />
  <path
     d="m 35.0873,28.5716 c 1.5375,-1.5089 3.9975,-1.5089 5.535,0 1.6528,1.5862 1.6528,4.2169 0,5.8031 -1.5375,1.5089 -3.9975,1.5089 -5.535,0 -1.6528,-1.5862 -1.6528,-4.2169 0,-5.8031 z"
     fill="#ffffff"
     id="path10" />
  <path
     d="m 17.7904,39.2498 c 1.5375,-1.5088 3.9975,-1.5088 5.535,0 1.6528,1.5862 1.6528,4.217 0,5.8032 -1.5375,1.5088 -3.9975,1.5088 -5.535,0 -1.6528,-1.5862 -1.6528,-4.217 0,-5.8032 z"
     fill="#ffffff"
     id="path12" />
  <path
     d="m 22.4805,23.5419 11.5312,6.693 1.9219,-1.0833 -11.5313,-6.7317 z"
     fill="#ffffff"
     id="path14" />
  <path
     d="M 34.7805,35.1482 24.4023,41.1835 22.4805,40.0616 32.8586,34.0649 Z"
     fill="#ffffff"
     id="path16" />
</svg>
